<?xml version="1.0" standalone="no"?>
<!DOCTYPE svg PUBLIC "-//W3C//DTD SVG 20010904//EN"
 "http://www.w3.org/TR/2001/REC-SVG-20010904/DTD/svg10.dtd">
<svg version="1.0" xmlns="http://www.w3.org/2000/svg"
 width="64.000000pt" height="64.000000pt" viewBox="0 0 64.000000 64.000000"
 preserveAspectRatio="xMidYMid meet">

<g transform="translate(0.000000,64.000000) scale(0.100000,-0.100000)"
fill="#000000" stroke="none">
<path d="M292 628 c-7 -7 -12 -20 -12 -29 0 -10 -8 -20 -18 -23 -28 -9 -70
-56 -50 -56 8 0 23 9 32 19 43 47 117 38 176 -22 100 -99 149 -286 100 -382
-22 -44 -25 -59 -9 -49 22 13 49 90 49 140 0 60 -31 171 -65 230 -24 42 -107
124 -125 124 -5 0 -10 8 -10 18 0 22 -19 42 -40 42 -9 0 -21 -5 -28 -12z m38
-23 c0 -8 -4 -15 -10 -15 -5 0 -10 7 -10 15 0 8 5 15 10 15 6 0 10 -7 10 -15z"/>
<path d="M255 483 c-85 -84 -130 -254 -88 -332 27 -51 62 -72 130 -78 71 -6
141 19 168 61 53 80 14 248 -78 344 -53 54 -80 55 -132 5z m101 -1 c61 -50
114 -169 114 -255 0 -82 -60 -137 -150 -137 -90 0 -150 55 -150 137 0 108 90
273 150 273 8 0 24 -8 36 -18z"/>
<path d="M250 344 c0 -8 5 -12 10 -9 6 4 8 11 5 16 -9 14 -15 11 -15 -7z"/>
<path d="M375 351 c-3 -5 -1 -12 5 -16 5 -3 10 1 10 9 0 18 -6 21 -15 7z"/>
<path d="M294 339 c-2 -4 3 -10 12 -13 17 -6 34 0 34 12 0 10 -40 10 -46 1z"/>
<path d="M275 245 c-14 -13 -25 -33 -25 -43 0 -33 38 -72 70 -72 32 0 70 39
70 72 0 25 -44 68 -70 68 -11 0 -32 -11 -45 -25z m75 -15 c11 -11 20 -23 20
-28 0 -16 -32 -52 -46 -52 -16 0 -54 35 -54 50 0 6 9 19 20 30 11 11 25 20 30
20 6 0 19 -9 30 -20z"/>
<path d="M146 458 c-37 -65 -58 -136 -63 -213 -4 -63 -2 -76 24 -125 21 -40
42 -63 78 -85 44 -27 56 -30 134 -30 68 0 93 4 120 20 52 30 51 50 -1 23 -59
-31 -175 -32 -233 -2 -57 30 -97 91 -103 157 -5 67 19 164 58 234 33 58 35 63
20 63 -5 0 -20 -19 -34 -42z"/>
</g>
</svg>
